<svg id="svg" xmlns="http://www.w3.org/2000/svg" xmlns:xlink="http://www.w3.org/1999/xlink" width="400" height="400" viewBox="0, 0, 400,400"><g id="svgg"><path id="path0" d="M38.716 1.736 C 37.817 3.020,37.500 5.462,37.500 11.111 L 37.500 18.750 35.131 18.750 C 24.158 18.750,14.551 34.902,19.844 44.452 C 20.805 46.187,20.678 46.507,18.131 48.743 C 13.025 53.226,10.638 64.119,13.594 69.452 C 14.555 71.187,14.428 71.507,11.881 73.743 C 6.896 78.120,4.612 87.777,7.047 94.181 C 7.757 96.048,7.513 96.635,4.806 99.571 C -3.510 108.593,-1.292 122.372,9.459 128.470 C 13.570 130.801,13.961 130.866,25.586 131.125 L 37.500 131.390 37.500 150.824 C 37.500 169.155,37.415 170.303,36.007 171.056 C 31.549 173.442,31.250 175.263,31.250 200.000 C 31.250 224.830,31.538 226.552,36.106 228.997 C 37.722 229.861,37.860 260.099,36.278 266.602 L 35.755 268.750 19.936 268.750 C 1.501 268.750,0.000 269.225,-0.000 275.057 C -0.000 280.878,1.033 281.250,17.187 281.250 C 24.922 281.250,31.250 281.487,31.250 281.776 C 31.250 282.066,28.952 288.434,26.142 295.928 C 19.345 314.061,18.750 317.217,18.750 335.134 L 18.750 349.854 11.018 350.122 C 1.837 350.441,0.000 351.483,0.000 356.371 C -0.000 361.521,1.748 362.500,10.937 362.500 L 18.750 362.500 18.750 364.869 C 18.750 375.842,34.902 385.449,44.452 380.156 C 46.187 379.195,46.507 379.322,48.743 381.869 C 53.226 386.975,64.119 389.362,69.452 386.406 C 71.187 385.445,71.507 385.572,73.743 388.119 C 78.147 393.136,88.285 395.494,94.085 392.852 C 95.867 392.040,96.382 392.254,99.461 395.092 C 108.594 403.511,122.336 401.355,128.470 390.541 C 130.801 386.430,130.866 386.039,131.125 374.414 L 131.390 362.500 150.824 362.500 C 169.155 362.500,170.303 362.585,171.056 363.993 C 173.442 368.451,175.263 368.750,200.000 368.750 C 224.823 368.750,226.552 368.461,228.993 363.901 C 229.858 362.285,260.255 362.131,266.602 363.710 L 268.750 364.245 268.750 380.064 C 268.750 398.499,269.225 400.000,275.057 400.000 C 280.878 400.000,281.250 398.967,281.250 382.813 C 281.250 375.078,281.514 368.752,281.836 368.754 C 282.158 368.756,288.047 370.888,294.922 373.491 C 313.584 380.557,317.093 381.238,334.888 381.245 L 349.854 381.250 350.122 388.982 C 350.441 398.163,351.483 400.000,356.371 400.000 C 361.521 400.000,362.500 398.252,362.500 389.062 L 362.500 381.250 364.869 381.250 C 375.842 381.250,385.449 365.098,380.156 355.548 C 379.195 353.813,379.322 353.493,381.869 351.257 C 386.975 346.774,389.362 335.881,386.406 330.548 C 385.445 328.813,385.572 328.493,388.119 326.257 C 393.104 321.880,395.388 312.223,392.953 305.819 C 392.243 303.952,392.487 303.365,395.194 300.429 C 402.879 292.092,401.449 278.487,392.248 272.398 C 387.780 269.442,384.147 268.759,372.852 268.754 L 362.500 268.750 362.500 249.246 C 362.500 230.846,362.584 229.697,363.993 228.944 C 368.451 226.558,368.750 224.737,368.750 200.000 C 368.750 175.177,368.461 173.448,363.901 171.007 C 362.285 170.142,362.131 139.745,363.710 133.398 L 364.245 131.250 380.064 131.250 C 398.499 131.250,400.000 130.775,400.000 124.943 C 400.000 119.122,398.967 118.750,382.813 118.750 C 375.078 118.750,368.750 118.513,368.750 118.224 C 368.750 117.934,371.048 111.566,373.858 104.072 C 380.655 85.939,381.250 82.783,381.250 64.866 L 381.250 50.146 388.982 49.878 C 398.163 49.559,400.000 48.517,400.000 43.629 C 400.000 38.479,398.252 37.500,389.063 37.500 L 381.250 37.500 381.250 35.131 C 381.250 24.158,365.098 14.551,355.548 19.844 C 353.813 20.805,353.493 20.678,351.257 18.131 C 346.774 13.025,335.881 10.638,330.548 13.594 C 328.813 14.555,328.493 14.428,326.257 11.881 C 321.880 6.896,312.223 4.612,305.819 7.047 C 303.952 7.757,303.365 7.513,300.429 4.806 C 292.092 -2.879,278.487 -1.449,272.398 7.752 C 269.442 12.220,268.759 15.853,268.754 27.148 L 268.750 37.500 249.246 37.500 C 230.846 37.500,229.697 37.416,228.944 36.007 C 226.558 31.549,224.737 31.250,200.000 31.250 C 175.177 31.250,173.448 31.539,171.007 36.099 C 170.142 37.715,139.745 37.869,133.398 36.290 L 131.250 35.755 131.250 19.936 C 131.250 1.501,130.775 0.000,124.943 0.000 C 119.122 -0.000,118.750 1.033,118.750 17.187 C 118.750 24.922,118.544 31.250,118.291 31.250 C 118.039 31.250,111.661 28.949,104.117 26.137 C 85.860 19.333,82.764 18.750,64.866 18.750 L 50.146 18.750 49.878 11.018 C 49.553 1.661,48.559 0.000,43.283 0.000 C 40.706 0.000,39.651 0.401,38.716 1.736 M291.942 14.199 C 293.672 15.824,293.750 16.391,293.750 27.306 C 293.750 41.651,295.692 45.170,302.331 42.856 C 305.715 41.676,306.250 40.148,306.250 31.653 C 306.250 21.364,307.676 18.750,313.288 18.750 C 317.807 18.750,318.750 21.391,318.750 34.046 C 318.750 47.288,319.761 49.610,325.459 49.449 C 330.289 49.312,331.250 47.439,331.250 38.156 C 331.250 27.628,332.643 25.000,338.224 25.000 C 342.592 25.000,343.318 27.010,343.750 40.293 C 344.198 54.080,344.937 55.781,350.474 55.781 C 355.108 55.781,356.250 53.640,356.250 44.952 C 356.250 34.169,357.725 31.250,363.173 31.250 C 368.428 31.250,368.750 32.720,368.750 56.708 C 368.750 82.194,368.942 81.133,359.988 105.078 C 350.967 129.203,350.749 130.237,350.227 151.367 L 349.798 168.750 345.942 168.750 C 339.504 168.750,336.221 172.370,338.239 177.242 C 339.537 180.376,342.026 181.250,349.646 181.250 L 356.250 181.250 356.250 200.000 L 356.250 218.750 315.625 218.750 L 275.000 218.750 275.000 200.000 L 275.000 181.250 297.942 181.250 C 324.157 181.250,325.000 181.061,325.000 175.189 C 325.000 168.927,324.352 168.750,301.426 168.750 L 281.250 168.750 281.250 159.128 C 281.250 141.047,278.049 130.619,267.559 114.526 C 258.250 100.244,256.697 94.434,256.665 73.769 L 256.641 58.085 258.829 55.214 C 261.184 52.124,264.574 50.000,267.149 50.000 C 268.711 50.000,268.750 50.392,268.750 65.979 C 268.750 85.551,269.993 88.786,276.851 87.065 C 281.273 85.955,281.250 86.146,281.250 50.569 C 281.250 12.512,281.210 12.740,287.840 12.562 C 289.188 12.525,290.880 13.201,291.942 14.199 M82.188 32.125 C 84.465 32.607,94.727 36.137,104.992 39.971 C 128.775 48.854,130.770 49.273,151.758 49.795 L 168.750 50.217 168.750 84.483 L 168.750 118.750 159.128 118.750 C 141.047 118.750,130.619 121.951,114.526 132.441 C 100.244 141.750,94.434 143.303,73.769 143.335 L 58.085 143.359 55.214 141.171 C 52.124 138.816,50.000 135.426,50.000 132.851 C 50.000 131.289,50.392 131.250,65.979 131.250 C 85.551 131.250,88.786 130.007,87.065 123.149 C 85.955 118.727,86.146 118.750,50.569 118.750 C 12.538 118.750,12.500 118.743,12.500 111.901 C 12.500 107.090,14.701 106.250,27.306 106.250 C 41.651 106.250,45.170 104.308,42.856 97.669 C 41.676 94.285,40.148 93.750,31.653 93.750 C 21.400 93.750,18.750 92.318,18.750 86.776 C 18.750 82.408,20.760 81.682,34.043 81.250 C 47.830 80.802,49.531 80.063,49.531 74.526 C 49.531 69.813,47.438 68.750,38.156 68.750 C 27.628 68.750,25.000 67.357,25.000 61.776 C 25.000 57.408,27.010 56.682,40.293 56.250 C 54.080 55.802,55.781 55.063,55.781 49.526 C 55.781 44.892,53.640 43.750,44.952 43.750 C 34.169 43.750,31.250 42.275,31.250 36.827 C 31.250 31.572,32.720 31.250,56.708 31.250 C 69.478 31.250,79.711 31.601,82.188 32.125 M218.750 84.375 L 218.750 125.000 200.000 125.000 L 181.250 125.000 181.250 84.375 L 181.250 43.750 200.000 43.750 L 218.750 43.750 218.750 84.375 M245.111 54.492 C 243.740 58.541,243.626 60.604,243.954 75.391 C 244.426 96.653,245.019 99.055,254.526 118.164 C 254.687 118.486,249.515 118.750,243.034 118.750 L 231.250 118.750 231.250 84.375 L 231.250 50.000 238.941 50.000 L 246.632 50.000 245.111 54.492 M172.270 133.599 C 175.642 137.117,178.305 137.491,200.000 137.491 C 221.695 137.491,224.358 137.117,227.730 133.599 L 229.980 131.250 246.574 131.250 L 263.169 131.250 264.860 135.742 C 267.662 143.185,268.722 149.878,268.736 160.205 L 268.750 170.020 266.401 172.270 C 262.883 175.642,262.509 178.305,262.509 200.000 C 262.509 221.695,262.883 224.358,266.401 227.730 L 268.750 229.980 268.750 246.574 L 268.750 263.169 264.258 264.860 C 256.815 267.662,250.122 268.722,239.795 268.736 L 229.980 268.750 227.730 266.401 C 224.358 262.883,221.695 262.509,200.000 262.509 C 178.305 262.509,175.642 262.883,172.270 266.401 L 170.020 268.750 153.426 268.750 L 136.831 268.750 135.140 264.258 C 132.338 256.815,131.278 250.122,131.264 239.795 L 131.250 229.980 133.599 227.730 C 137.117 224.358,137.491 221.695,137.491 200.000 C 137.491 178.305,137.117 175.642,133.599 172.270 L 131.250 170.020 131.250 153.454 L 131.250 136.888 134.570 135.553 C 142.379 132.413,148.656 131.337,159.424 131.293 L 170.020 131.250 172.270 133.599 M118.750 157.031 L 118.750 168.750 84.375 168.750 L 50.000 168.750 50.000 160.977 L 50.000 153.205 52.930 154.532 C 62.809 159.008,97.875 155.636,110.938 148.955 C 114.590 147.086,117.842 145.502,118.164 145.435 C 118.486 145.368,118.750 150.586,118.750 157.031 M125.000 200.000 L 125.000 218.750 102.058 218.750 C 75.843 218.750,75.000 218.939,75.000 224.811 C 75.000 231.073,75.648 231.250,98.574 231.250 L 118.750 231.250 118.750 240.872 C 118.750 258.953,121.951 269.381,132.441 285.474 C 141.750 299.756,143.303 305.566,143.335 326.231 L 143.359 341.915 141.171 344.786 C 138.816 347.876,135.426 350.000,132.851 350.000 C 131.289 350.000,131.250 349.608,131.250 334.021 C 131.250 314.449,130.007 311.214,123.149 312.935 C 118.727 314.045,118.750 313.854,118.750 349.431 C 118.750 387.462,118.743 387.500,111.901 387.500 C 107.078 387.500,106.250 385.312,106.250 372.564 C 106.250 358.922,105.278 356.638,99.541 356.801 C 94.711 356.938,93.750 358.811,93.750 368.094 C 93.750 378.658,92.363 381.250,86.712 381.250 C 82.193 381.250,81.250 378.609,81.250 365.954 C 81.250 352.712,80.239 350.390,74.541 350.551 C 69.711 350.688,68.750 352.561,68.750 361.844 C 68.750 372.372,67.357 375.000,61.776 375.000 C 57.408 375.000,56.682 372.990,56.250 359.707 C 55.804 346.008,55.044 344.219,49.666 344.219 C 44.758 344.219,43.750 346.004,43.750 354.692 C 43.750 365.847,42.320 368.750,36.827 368.750 C 31.572 368.750,31.250 367.280,31.250 343.292 C 31.250 317.806,31.058 318.867,40.012 294.922 C 48.986 270.924,49.223 269.797,49.767 248.633 L 50.215 231.250 53.950 231.250 C 60.516 231.250,63.424 228.213,61.741 223.114 C 60.600 219.657,58.235 218.750,50.354 218.750 L 43.750 218.750 43.750 200.000 L 43.750 181.250 84.375 181.250 L 125.000 181.250 125.000 200.000 M350.000 239.023 L 350.000 246.795 347.070 245.468 C 344.571 244.336,341.500 244.150,326.172 244.203 C 303.285 244.283,301.669 244.659,281.836 254.526 C 281.514 254.687,281.250 249.515,281.250 243.034 L 281.250 231.250 315.625 231.250 L 350.000 231.250 350.000 239.023 M344.790 258.829 C 347.877 261.185,350.000 264.576,350.000 267.149 C 350.000 268.711,349.608 268.750,334.021 268.750 C 314.449 268.750,311.214 269.993,312.935 276.851 C 314.045 281.273,313.854 281.250,349.431 281.250 C 387.462 281.250,387.500 281.257,387.500 288.099 C 387.500 292.910,385.299 293.750,372.694 293.750 C 358.349 293.750,354.830 295.692,357.144 302.331 C 358.324 305.715,359.852 306.250,368.347 306.250 C 378.636 306.250,381.250 307.676,381.250 313.288 C 381.250 317.807,378.609 318.750,365.954 318.750 C 352.803 318.750,350.469 319.751,350.469 325.390 C 350.469 330.197,352.513 331.250,361.844 331.250 C 372.372 331.250,375.000 332.643,375.000 338.224 C 375.000 342.592,372.990 343.318,359.707 343.750 C 345.920 344.198,344.219 344.937,344.219 350.474 C 344.219 355.108,346.360 356.250,355.048 356.250 C 365.831 356.250,368.750 357.725,368.750 363.173 C 368.750 368.428,367.280 368.750,343.292 368.750 C 317.806 368.750,318.867 368.942,294.922 359.988 C 270.924 351.014,269.797 350.777,248.633 350.233 L 231.250 349.785 231.250 315.518 L 231.250 281.250 240.872 281.250 C 258.953 281.250,269.381 278.049,285.474 267.559 C 293.119 262.575,298.733 259.940,305.210 258.291 C 312.199 256.513,313.472 256.416,328.188 256.532 L 341.923 256.641 344.790 258.829 M218.750 315.625 L 218.750 356.250 200.000 356.250 L 181.250 356.250 181.250 315.625 L 181.250 275.000 200.000 275.000 L 218.750 275.000 218.750 315.625 M168.750 315.625 L 168.750 350.000 160.977 350.000 L 153.205 350.000 154.532 347.070 C 155.664 344.571,155.850 341.500,155.797 326.172 C 155.717 303.285,155.341 301.669,145.474 281.836 C 145.313 281.514,150.485 281.250,156.966 281.250 L 168.750 281.250 168.750 315.625 " stroke="none" fill="#991723" fill-rule="evenodd"></path></g></svg>