<svg id="svg" xmlns="http://www.w3.org/2000/svg" xmlns:xlink="http://www.w3.org/1999/xlink" width="400" height="400" viewBox="0, 0, 400,400"><g id="svgg"><path id="path0" d="M167.779 24.192 C 125.005 32.008,111.923 83.465,139.569 135.156 C 155.137 164.264,184.579 196.485,219.991 223.170 C 227.879 229.114,228.708 229.007,239.453 220.658 C 314.036 162.706,346.889 95.950,323.218 50.451 C 307.117 19.503,266.623 14.697,233.270 39.775 L 227.086 44.424 222.723 41.121 C 204.988 27.694,184.000 21.228,167.779 24.192 M187.109 37.454 C 198.197 40.125,207.378 45.101,218.650 54.548 C 225.996 60.704,227.185 60.756,233.745 55.207 C 262.887 30.556,294.136 29.614,309.629 52.919 C 334.749 90.706,299.868 160.950,230.806 211.656 L 227.627 213.989 218.441 206.689 C 173.671 171.112,146.216 133.579,138.509 97.415 C 130.204 58.448,153.737 29.415,187.109 37.454 M175.781 46.746 C 154.943 53.677,143.588 74.240,146.794 99.239 C 148.135 109.698,150.729 112.621,156.170 109.807 C 159.039 108.323,158.791 109.814,158.913 93.359 C 159.106 67.354,169.728 55.935,192.304 57.460 C 201.284 58.067,203.414 56.936,202.974 51.791 C 202.455 45.712,187.328 42.905,175.781 46.746 M284.158 126.758 C 283.445 127.295,281.178 130.547,279.122 133.984 C 272.781 144.584,266.553 152.224,253.337 165.613 C 241.633 177.470,240.625 178.715,240.625 181.312 C 240.625 185.340,242.977 187.132,247.839 186.809 C 255.193 186.320,293.750 140.004,293.750 131.658 C 293.750 127.055,287.800 124.016,284.158 126.758 M365.625 235.263 C 360.024 236.127,356.262 238.128,324.609 257.077 C 283.646 281.601,243.685 300.075,246.465 293.204 C 250.362 283.573,245.274 269.948,236.045 265.300 C 231.090 262.805,163.329 241.617,154.433 239.781 C 134.100 235.585,119.907 238.543,88.314 253.562 L 74.676 260.045 71.761 257.412 C 67.070 253.173,65.558 252.997,36.328 253.269 C 6.095 253.550,6.001 253.570,1.946 260.488 L 0.000 263.809 0.000 314.748 C 0.000 372.475,-0.313 369.576,6.402 374.023 L 9.648 376.172 36.269 376.419 C 68.339 376.717,69.759 376.433,74.605 368.757 C 76.345 366.000,76.954 365.696,85.295 363.416 C 109.379 356.834,122.395 356.506,149.956 361.788 C 192.202 369.884,219.598 367.010,266.016 349.615 C 308.169 333.817,386.432 293.240,394.075 283.219 C 410.435 261.771,392.273 231.156,365.625 235.263 M376.953 248.333 C 385.903 252.409,390.578 264.524,386.328 272.629 C 384.231 276.627,379.674 279.785,360.938 290.222 C 267.397 342.326,209.868 360.285,164.063 351.680 C 135.360 346.288,132.692 345.940,119.922 345.930 C 106.408 345.918,95.240 347.457,83.001 351.018 L 76.549 352.895 76.751 312.676 L 76.953 272.458 92.969 264.775 C 133.369 245.397,134.573 245.387,192.833 263.974 C 235.149 277.473,235.147 277.473,235.152 285.156 C 235.163 303.192,199.850 300.708,151.509 279.273 C 135.607 272.222,132.031 272.379,132.031 280.131 C 132.031 283.416,133.282 284.373,143.750 289.105 C 195.014 312.275,231.687 315.230,271.875 299.429 C 288.314 292.966,303.971 284.496,343.750 260.545 C 368.090 245.891,370.027 245.178,376.953 248.333 M64.158 268.359 C 65.293 273.672,64.902 361.340,63.736 362.937 C 62.183 365.062,16.722 365.742,13.585 363.687 L 11.719 362.464 11.719 314.982 C 11.719 278.798,11.944 267.274,12.667 266.552 C 13.380 265.839,19.829 265.655,38.636 265.810 L 63.657 266.016 64.158 268.359 M29.229 277.294 C 13.137 286.524,19.715 310.847,38.323 310.920 C 56.943 310.994,63.432 285.519,46.925 277.148 C 40.915 274.101,34.707 274.152,29.229 277.294 M41.924 288.654 C 46.317 291.730,43.739 299.169,38.281 299.169 C 32.823 299.169,30.246 291.730,34.638 288.654 C 35.544 288.019,37.183 287.500,38.281 287.500 C 39.379 287.500,41.019 288.019,41.924 288.654 " stroke="none" fill="#991723" fill-rule="evenodd"></path></g></svg>