<svg id="svg" xmlns="http://www.w3.org/2000/svg" xmlns:xlink="http://www.w3.org/1999/xlink" width="400" height="400" viewBox="0, 0, 400,400"><g id="svgg"><path id="path0" d="M191.285 1.044 C 173.927 7.516,169.257 19.641,175.079 43.118 C 176.324 48.142,177.344 52.449,177.344 52.689 C 177.344 52.929,174.883 53.125,171.875 53.125 L 166.406 53.125 166.406 60.156 L 166.406 67.188 173.047 67.188 L 179.688 67.188 179.688 73.438 L 179.688 79.688 148.782 79.688 C 112.808 79.687,104.154 80.641,91.713 85.973 L 88.291 87.440 87.030 84.931 C 83.600 78.105,72.656 78.602,72.656 85.583 C 72.656 87.758,70.951 87.444,64.112 84.009 C 60.235 82.062,56.781 80.469,56.437 80.469 C 55.897 80.469,50.000 91.568,50.000 92.584 C 50.000 92.788,53.500 94.711,57.777 96.857 L 65.554 100.760 64.476 103.310 C 63.883 104.712,49.133 136.959,31.699 174.970 C 0.190 243.667,0.000 244.111,0.009 249.189 C 0.047 269.844,16.668 288.897,38.193 292.956 C 45.240 294.285,116.403 293.969,123.047 292.579 C 143.337 288.333,158.458 271.192,159.919 250.781 L 160.338 244.922 127.736 173.828 C 89.322 90.061,93.333 100.565,98.954 98.437 C 109.993 94.258,115.161 93.771,148.633 93.760 L 179.688 93.750 179.688 215.440 L 179.687 337.130 168.545 348.252 L 157.402 359.375 145.693 359.390 C 125.399 359.417,117.449 361.627,109.865 369.351 C 101.129 378.248,96.846 393.639,101.808 398.301 L 103.616 400.000 200.109 400.000 L 296.603 400.000 298.301 398.192 C 303.034 393.154,298.790 378.166,290.135 369.351 C 282.549 361.625,274.602 359.417,254.287 359.390 L 242.558 359.375 231.435 348.232 L 220.312 337.090 220.313 215.420 L 220.313 93.750 251.103 93.750 C 284.411 93.750,288.480 94.114,300.065 98.127 L 305.989 100.180 272.815 172.501 L 239.640 244.822 240.070 250.731 C 241.561 271.217,256.643 288.329,276.953 292.579 C 283.597 293.969,354.760 294.285,361.807 292.956 C 383.328 288.897,399.953 269.844,399.991 249.197 C 400.000 244.130,399.792 243.644,368.305 174.978 C 350.873 136.963,336.124 104.712,335.528 103.310 L 334.446 100.760 342.223 96.857 C 346.500 94.711,350.000 92.788,350.000 92.584 C 350.000 91.568,344.103 80.469,343.563 80.469 C 343.219 80.469,339.744 82.073,335.840 84.033 C 331.937 85.994,328.573 87.428,328.366 87.220 C 328.158 87.012,327.404 85.679,326.689 84.257 C 323.672 78.252,316.729 78.189,313.454 84.137 L 311.649 87.415 308.256 85.960 C 295.849 80.642,287.169 79.687,251.218 79.688 L 220.313 79.688 220.313 73.438 L 220.313 67.188 226.953 67.188 L 233.594 67.188 233.594 60.156 L 233.594 53.125 228.125 53.125 C 225.117 53.125,222.656 52.929,222.656 52.689 C 222.656 52.449,223.753 47.966,225.094 42.728 C 230.332 22.268,226.066 9.007,212.109 2.369 C 207.279 0.071,195.845 -0.656,191.285 1.044 M207.671 16.611 C 214.922 21.409,215.023 25.408,208.521 50.195 L 207.752 53.125 200.000 53.125 L 192.248 53.125 191.481 50.195 C 186.540 31.317,185.925 27.849,186.893 24.332 C 189.432 15.114,199.664 11.312,207.671 16.611 M206.250 73.438 L 206.250 79.688 200.000 79.688 L 193.750 79.688 193.750 73.438 L 193.750 67.188 200.000 67.188 L 206.250 67.188 206.250 73.438 M206.250 213.281 L 206.250 332.813 200.000 332.813 L 193.750 332.813 193.750 213.281 L 193.750 93.750 200.000 93.750 L 206.250 93.750 206.250 213.281 M111.719 172.797 C 128.262 208.940,141.914 238.811,142.057 239.177 C 142.201 239.544,114.302 239.844,80.060 239.844 C 28.865 239.844,17.872 239.661,18.197 238.814 C 23.870 224.031,78.814 107.036,80.074 107.057 C 81.385 107.079,86.547 117.803,111.719 172.797 M351.450 172.408 C 367.927 208.365,381.586 238.248,381.803 238.814 C 382.128 239.661,371.135 239.844,319.940 239.844 C 285.698 239.844,257.799 239.544,257.943 239.177 C 264.066 223.508,318.688 107.077,319.926 107.057 C 321.248 107.035,326.156 117.208,351.450 172.408 M144.912 255.664 C 141.677 266.908,130.795 276.713,119.192 278.838 C 112.745 280.019,46.013 279.988,40.468 278.801 C 28.619 276.266,14.850 263.413,14.844 254.883 C 14.844 254.109,28.422 253.906,80.131 253.906 L 145.418 253.906 144.912 255.664 M385.156 254.883 C 385.150 263.413,371.381 276.266,359.532 278.801 C 353.987 279.988,287.255 280.019,280.808 278.838 C 269.205 276.713,258.323 266.908,255.088 255.664 L 254.582 253.906 319.869 253.906 C 371.578 253.906,385.156 254.109,385.156 254.883 M216.016 353.125 L 222.229 359.375 200.000 359.375 L 177.771 359.375 183.984 353.125 L 190.198 346.875 200.000 346.875 L 209.802 346.875 216.016 353.125 M270.243 374.277 C 276.033 375.519,284.375 382.030,284.375 385.308 C 284.375 385.654,246.406 385.938,200.000 385.938 C 153.594 385.938,115.625 385.654,115.625 385.308 C 115.625 382.280,123.239 376.013,128.702 374.544 C 133.604 373.225,264.190 372.979,270.243 374.277 " stroke="none" fill="#991723" fill-rule="evenodd"></path></g></svg>