<svg id="svg" xmlns="http://www.w3.org/2000/svg" xmlns:xlink="http://www.w3.org/1999/xlink" width="400" height="400" viewBox="0, 0, 400,400"><g id="svgg"><path id="path0" d="M188.672 27.369 C 144.874 32.285,108.458 63.225,97.207 105.078 C 94.129 116.527,95.308 120.313,101.953 120.313 C 106.053 120.312,108.166 118.144,109.016 113.063 C 109.623 109.440,113.570 97.776,115.380 94.259 L 116.526 92.034 119.396 96.966 C 124.539 105.806,133.081 113.202,148.996 122.599 C 161.971 130.260,164.345 133.860,163.594 144.737 C 162.734 157.200,165.374 162.389,177.005 171.093 C 185.142 177.182,186.088 178.818,184.146 183.451 C 183.483 185.033,181.976 188.613,180.797 191.406 C 176.644 201.243,177.978 212.258,184.440 221.482 L 187.554 225.928 184.207 225.372 C 148.514 219.444,118.374 191.262,109.393 155.417 C 107.515 147.920,105.991 146.094,101.612 146.094 C 94.497 146.094,93.710 151.664,98.713 166.615 C 131.255 263.864,268.956 264.068,301.161 166.915 C 325.410 93.764,264.984 18.803,188.672 27.369 M219.531 42.346 C 235.862 45.800,253.802 55.304,263.957 65.881 L 266.586 68.619 264.477 71.384 C 259.955 77.312,259.168 84.709,261.764 96.875 C 262.636 100.957,263.641 109.415,263.998 115.670 C 264.991 133.044,269.900 138.204,280.358 132.869 L 283.310 131.363 288.139 134.211 C 293.720 137.503,293.738 137.572,291.804 148.664 C 284.902 188.239,254.028 218.998,214.822 225.356 C 203.060 227.264,203.803 227.801,206.490 219.336 C 209.250 210.641,212.271 206.329,221.186 198.363 C 241.671 180.056,250.449 166.768,251.386 152.646 C 252.039 142.802,249.390 138.468,238.911 132.237 C 235.469 130.190,229.363 125.675,225.342 122.203 C 217.874 115.756,214.491 114.062,209.074 114.063 C 207.504 114.063,204.029 113.145,201.352 112.023 C 194.251 109.048,191.029 108.582,184.492 109.582 C 177.027 110.724,174.220 109.332,166.196 100.506 C 155.172 88.380,154.843 88.884,176.141 85.270 C 191.917 82.593,196.035 80.987,202.677 74.916 C 212.540 65.902,212.647 55.744,202.953 48.779 C 199.213 46.092,198.461 44.290,199.715 41.023 C 200.333 39.412,208.115 39.931,219.531 42.346 M185.373 43.227 C 184.586 47.343,186.708 51.753,191.880 56.749 L 196.886 61.586 194.992 63.837 C 191.232 68.305,186.477 70.074,171.642 72.522 C 150.555 76.002,145.357 79.413,145.325 89.792 C 145.309 95.309,147.122 98.973,153.631 106.571 L 158.808 112.614 153.428 109.325 C 136.169 98.773,129.206 91.064,126.647 79.676 L 125.894 76.327 133.846 68.356 C 147.023 55.146,160.042 47.605,177.734 42.936 C 185.143 40.980,185.797 41.005,185.373 43.227 M279.892 85.742 C 284.670 93.690,288.021 101.743,290.319 110.803 C 292.933 121.108,292.896 121.459,289.407 119.401 C 287.143 118.065,285.786 117.836,282.100 118.171 L 277.573 118.581 277.066 110.267 C 276.787 105.694,275.856 98.807,274.998 94.961 C 273.253 87.144,273.050 83.433,274.246 81.199 C 275.498 78.860,275.994 79.259,279.892 85.742 M37.738 120.232 C 33.911 122.636,33.033 124.628,31.332 134.766 C 25.824 167.593,24.935 214.825,29.278 243.896 C 31.149 256.418,31.106 256.363,62.963 287.891 C 82.353 307.080,91.537 316.698,91.869 318.164 L 92.357 320.313 87.549 320.313 C 83.486 320.312,82.444 320.610,80.824 322.230 L 78.906 324.148 78.906 346.692 C 78.906 368.259,78.975 369.310,80.490 370.937 C 82.905 373.529,82.344 373.505,134.249 373.269 L 182.951 373.047 184.444 371.203 C 185.838 369.480,185.937 367.840,185.938 346.455 L 185.938 323.551 183.879 321.932 C 182.528 320.869,180.676 320.313,178.491 320.313 L 175.162 320.313 174.810 298.633 C 174.487 278.775,174.311 276.526,172.714 271.875 C 165.245 250.116,146.322 234.949,123.408 232.356 L 118.745 231.829 105.006 218.844 C 90.738 205.359,87.264 202.676,83.036 201.875 C 79.774 201.257,79.622 201.039,75.785 191.516 L 72.524 183.422 74.153 177.037 C 79.770 155.013,71.469 133.671,52.788 122.113 C 46.973 118.515,41.549 117.837,37.738 120.232 M349.149 120.990 C 329.515 131.481,320.040 154.270,325.847 177.037 L 327.476 183.422 324.215 191.516 C 320.378 201.039,320.226 201.257,316.964 201.875 C 312.735 202.676,309.261 205.359,294.982 218.855 L 281.232 231.851 275.980 232.414 C 253.900 234.778,234.671 250.361,227.286 271.875 C 225.689 276.526,225.513 278.775,225.190 298.633 L 224.838 320.313 221.509 320.313 C 219.324 320.313,217.472 320.869,216.121 321.932 L 214.063 323.551 214.063 346.455 C 214.063 367.840,214.162 369.480,215.556 371.203 L 217.049 373.047 265.751 373.269 C 317.656 373.505,317.095 373.529,319.510 370.937 C 321.025 369.310,321.094 368.259,321.094 346.692 L 321.094 324.148 319.176 322.230 C 317.563 320.617,316.508 320.313,312.536 320.313 C 304.292 320.313,304.571 319.938,335.845 289.063 C 363.899 261.366,366.870 258.029,369.085 251.731 C 372.766 241.264,374.613 183.561,372.029 159.766 C 370.285 143.715,367.249 125.601,365.976 123.658 C 362.561 118.447,355.889 117.388,349.149 120.990 M184.046 122.995 C 190.975 122.549,192.287 122.674,194.983 124.038 C 198.311 125.722,204.984 127.344,208.588 127.344 C 210.225 127.344,212.100 128.484,215.385 131.478 C 221.618 137.158,225.230 139.836,231.755 143.616 C 240.212 148.514,240.443 151.412,233.401 164.271 C 229.096 172.134,224.705 177.250,216.110 184.419 C 207.218 191.837,199.658 200.584,196.650 206.937 L 194.290 211.920 193.081 209.671 C 191.167 206.112,191.535 199.506,193.902 194.922 C 202.046 179.151,199.796 171.304,183.666 159.220 C 177.316 154.463,176.953 153.549,176.953 142.323 C 176.953 131.994,176.558 130.426,172.355 124.059 L 170.960 121.946 173.566 122.724 C 175.083 123.178,179.462 123.291,184.046 122.995 M97.121 127.320 C 93.397 128.885,92.478 135.251,95.558 138.145 C 99.709 142.045,106.250 139.163,106.250 133.435 C 106.250 128.540,101.611 125.433,97.121 127.320 M115.871 127.320 C 111.883 128.996,110.820 142.491,114.353 146.598 C 119.073 152.086,125.784 147.977,125.777 139.605 C 125.768 129.273,122.087 124.708,115.871 127.320 M51.577 137.996 C 61.336 146.813,64.701 160.299,60.850 175.157 C 58.822 182.980,59.151 186.221,62.933 195.703 L 65.738 202.734 61.847 206.759 C 57.037 211.734,55.586 216.864,57.025 223.798 C 58.426 230.545,60.294 233.146,78.352 253.483 L 95.376 272.656 98.803 272.656 C 104.441 272.656,107.371 267.126,104.161 262.542 C 103.441 261.515,95.712 252.619,86.986 242.773 C 67.854 221.186,65.661 216.333,74.192 214.459 C 79.060 213.390,80.812 214.540,95.405 228.384 C 111.559 243.710,112.377 244.238,122.196 245.712 C 138.392 248.143,150.647 256.779,157.378 270.504 C 161.222 278.340,161.719 281.999,161.719 302.450 L 161.719 320.313 133.594 320.313 L 105.469 320.313 105.469 317.703 C 105.469 313.190,101.309 306.224,95.123 300.378 C 77.533 283.755,45.734 251.538,44.451 249.041 C 38.950 238.333,38.357 176.924,43.432 143.359 C 45.154 131.966,45.008 132.062,51.577 137.996 M356.520 143.359 C 359.445 164.008,359.765 169.385,359.731 197.266 C 359.692 228.060,358.454 243.386,355.548 249.042 C 354.266 251.538,322.465 283.756,304.877 300.378 C 298.691 306.224,294.531 313.190,294.531 317.703 L 294.531 320.313 266.406 320.313 L 238.281 320.313 238.281 302.487 C 238.281 282.236,238.903 277.610,242.619 270.232 C 249.398 256.770,261.824 248.111,277.804 245.712 C 287.625 244.238,288.438 243.712,304.630 228.351 C 319.555 214.191,321.423 213.010,326.325 214.627 C 333.891 217.123,331.767 221.614,313.005 242.783 C 304.284 252.623,296.559 261.515,295.839 262.542 C 292.629 267.126,295.559 272.656,301.197 272.656 L 304.624 272.656 321.648 253.483 C 339.706 233.146,341.574 230.545,342.975 223.798 C 344.414 216.864,342.963 211.734,338.153 206.759 L 334.262 202.734 337.067 195.703 C 340.885 186.131,341.175 183.068,339.052 174.744 C 334.983 158.790,339.478 144.216,351.052 135.831 C 355.008 132.966,355.058 133.035,356.520 143.359 M121.335 155.459 C 116.251 157.557,116.172 162.107,121.050 171.882 C 131.357 192.536,144.595 204.695,150.426 198.864 C 154.038 195.252,153.193 192.091,146.821 185.383 C 140.512 178.742,135.401 171.197,131.682 163.036 C 128.315 155.648,125.635 153.685,121.335 155.459 M172.656 346.875 L 172.656 360.156 132.422 360.156 L 92.188 360.156 92.188 346.875 L 92.188 333.594 132.422 333.594 L 172.656 333.594 172.656 346.875 M307.813 346.875 L 307.813 360.156 267.578 360.156 L 227.344 360.156 227.344 346.875 L 227.344 333.594 267.578 333.594 L 307.813 333.594 307.813 346.875 " stroke="none" fill="#991723" fill-rule="evenodd"></path></g></svg>