<svg id="svg" xmlns="http://www.w3.org/2000/svg" xmlns:xlink="http://www.w3.org/1999/xlink" width="400" height="400" viewBox="0, 0, 400,400"><g id="svgg"><path id="path0" d="M313.672 1.510 C 292.031 6.584,273.196 20.972,263.777 39.622 C 261.284 44.560,261.232 45.980,263.391 50.226 C 290.178 102.908,368.013 104.209,397.203 52.464 C 401.322 45.162,401.032 43.248,394.279 33.203 C 377.103 7.652,343.621 -5.513,313.672 1.510 M32.209 4.255 C 18.199 7.648,5.627 20.007,1.993 33.957 C 0.386 40.126,0.119 342.775,1.719 344.375 C 3.086 345.743,7.448 345.521,8.693 344.021 C 9.591 342.939,9.829 317.807,10.156 189.528 L 10.547 36.328 12.829 31.674 C 16.946 23.277,23.997 17.032,32.657 14.115 C 37.381 12.523,38.634 12.500,119.333 12.500 C 210.101 12.500,204.688 12.815,204.688 7.534 C 204.688 6.140,204.266 4.578,203.750 4.063 C 202.348 2.660,38.032 2.845,32.209 4.255 M340.048 10.683 C 352.648 14.636,362.500 29.832,362.500 45.312 C 362.500 76.315,329.022 92.833,309.494 71.465 C 285.328 45.024,307.693 0.533,340.048 10.683 M295.800 21.289 C 288.323 34.202,287.989 52.611,294.968 67.173 L 297.693 72.860 295.526 71.467 C 290.719 68.377,283.645 62.335,280.776 58.868 C 276.348 53.517,271.880 46.675,271.877 45.238 C 271.870 41.279,283.453 27.567,291.696 21.778 C 298.267 17.164,298.183 17.174,295.800 21.289 M376.167 26.758 C 379.360 29.700,383.895 34.987,386.246 38.506 L 390.519 44.905 388.578 48.429 C 384.188 56.400,374.088 66.882,366.552 71.288 L 364.215 72.655 366.844 67.428 C 373.641 53.919,373.491 35.099,366.483 22.161 L 364.201 17.946 367.281 19.678 C 368.976 20.630,372.974 23.816,376.167 26.758 M325.173 26.929 C 304.502 33.384,309.170 64.090,330.817 64.055 C 343.202 64.035,355.738 48.404,348.571 41.918 C 345.513 39.150,340.625 41.393,340.625 45.564 C 340.625 55.296,326.817 58.020,322.250 49.189 C 319.143 43.180,324.340 35.156,331.337 35.156 C 335.384 35.156,336.893 29.858,333.605 27.196 C 331.570 25.548,329.778 25.492,325.173 26.929 M44.439 33.110 C 37.419 35.618,32.426 40.703,30.518 47.284 C 29.848 49.598,29.676 93.159,29.848 217.969 L 30.078 385.547 31.767 388.672 C 34.013 392.825,37.884 396.430,42.188 398.376 C 45.674 399.952,46.712 399.966,166.058 399.983 L 286.412 400.000 290.470 397.978 C 299.396 393.530,302.344 387.320,302.344 372.964 C 302.344 362.412,301.777 360.938,297.722 360.938 C 293.731 360.938,292.969 362.810,292.969 372.611 C 292.969 382.748,291.668 386.236,286.749 389.296 L 283.984 391.016 166.406 391.016 C 35.981 391.016,45.467 391.420,41.315 385.688 L 39.062 382.578 39.062 216.405 L 39.063 50.231 40.839 47.595 C 41.816 46.145,43.802 44.160,45.251 43.183 L 47.887 41.406 127.040 41.406 L 206.192 41.406 206.416 78.320 L 206.641 115.234 208.477 118.188 C 212.294 124.328,211.456 124.219,254.656 124.219 L 292.969 124.219 292.969 143.576 C 292.969 165.037,293.249 166.406,297.645 166.406 C 302.312 166.406,302.344 166.235,302.344 140.744 L 302.344 117.537 267.436 83.573 C 248.237 64.893,228.388 45.654,223.328 40.820 L 214.127 32.031 130.696 32.066 C 64.527 32.093,46.681 32.309,44.439 33.110 M267.578 97.174 L 285.547 114.761 252.015 114.802 C 221.872 114.840,218.338 114.713,217.054 113.551 C 215.713 112.337,215.625 110.242,215.625 79.474 L 215.625 46.690 232.617 63.138 C 241.963 72.185,257.695 87.501,267.578 97.174 M58.768 75.435 C 56.706 76.879,56.437 80.544,58.259 82.366 C 59.332 83.440,63.256 83.594,89.491 83.594 L 119.495 83.594 120.771 81.646 C 122.452 79.081,121.655 75.956,119.068 74.972 C 115.421 73.586,60.809 74.005,58.768 75.435 M58.324 110.022 C 56.617 111.909,56.681 115.066,58.460 116.676 C 59.748 117.842,63.624 117.969,97.869 117.969 L 135.849 117.969 137.065 116.232 C 138.702 113.895,138.596 112.033,136.719 110.156 C 134.386 107.823,60.429 107.697,58.324 110.022 M149.730 110.022 C 145.903 114.252,148.952 117.969,156.250 117.969 C 163.554 117.969,166.893 113.741,162.634 109.887 C 160.525 107.978,151.495 108.073,149.730 110.022 M118.945 141.022 C 116.449 142.803,116.148 186.317,118.616 188.551 C 120.609 190.355,162.842 190.519,165.280 188.733 C 170.671 184.783,163.617 163.514,153.619 153.577 C 143.675 143.693,124.786 136.853,118.945 141.022 M185.330 150.435 C 183.047 152.034,182.907 156.608,185.105 157.785 C 187.169 158.890,244.081 158.890,246.145 157.785 C 247.185 157.228,247.656 156.147,247.656 154.314 C 247.656 149.225,247.617 149.219,215.625 149.219 C 191.042 149.219,186.825 149.388,185.330 150.435 M260.330 150.435 C 258.047 152.034,257.907 156.608,260.105 157.785 C 262.803 159.229,272.228 158.799,273.707 157.165 C 278.639 151.715,266.920 145.819,260.330 150.435 M135.820 152.396 C 144.615 156.256,152.381 164.657,155.390 173.568 C 157.909 181.028,159.011 180.469,141.797 180.469 L 126.563 180.469 126.563 165.147 L 126.563 149.826 129.492 150.365 C 131.104 150.662,133.951 151.576,135.820 152.396 M89.453 161.599 C 56.704 171.119,46.165 212.492,70.305 236.772 C 97.880 264.508,146.875 245.303,146.875 206.758 C 146.875 200.607,147.483 200.781,126.016 200.781 L 107.031 200.781 107.020 182.617 C 107.006 160.180,107.148 160.607,99.589 160.392 C 96.273 160.297,92.306 160.769,89.453 161.599 M97.656 188.516 C 97.656 202.240,97.916 207.760,98.594 208.438 C 99.271 209.115,104.792 209.375,118.516 209.375 C 129.413 209.375,137.500 209.678,137.500 210.087 C 137.500 224.885,119.093 240.625,101.787 240.625 C 62.342 240.625,53.087 185.171,90.226 171.359 C 98.313 168.352,97.656 166.835,97.656 188.516 M296.094 182.585 C 290.659 184.584,290.772 192.043,296.267 193.989 C 298.564 194.802,302.127 193.034,303.146 190.574 C 305.081 185.904,300.667 180.904,296.094 182.585 M184.821 184.821 C 184.146 185.497,183.594 187.054,183.594 188.281 C 183.594 193.156,181.775 192.969,229.232 192.969 C 270.074 192.969,272.484 192.891,273.707 191.540 C 275.415 189.653,275.350 186.497,273.571 184.887 C 271.446 182.964,186.742 182.901,184.821 184.821 M268.687 217.976 C 229.655 227.580,210.322 271.002,229.006 307.101 C 245.926 339.793,288.576 349.968,319.137 328.605 L 324.044 325.175 329.154 330.361 L 334.264 335.547 332.706 338.540 C 329.283 345.114,329.402 355.010,332.989 362.085 C 335.787 367.605,358.975 390.177,364.453 392.713 C 381.792 400.741,399.619 389.182,399.603 369.922 C 399.593 359.359,398.774 357.969,383.413 342.458 C 365.876 324.750,357.798 321.432,345.313 326.805 L 341.016 328.654 335.832 323.617 L 330.649 318.580 334.830 312.334 C 365.928 265.874,322.988 204.616,268.687 217.976 M184.961 218.813 C 184.084 219.323,183.594 220.559,183.594 222.260 C 183.594 227.167,184.437 227.344,207.813 227.344 C 225.325 227.344,228.829 227.154,230.295 226.128 C 232.578 224.528,232.718 219.954,230.520 218.777 C 228.498 217.695,186.824 217.727,184.961 218.813 M296.878 227.397 C 353.748 243.157,345.011 327.532,286.223 330.294 C 221.838 333.318,210.767 240.441,273.828 226.313 C 278.521 225.261,291.348 225.865,296.878 227.397 M276.563 240.718 C 259.636 243.443,245.395 260.582,245.318 278.320 C 245.286 285.734,254.045 283.557,255.013 275.911 C 256.844 261.436,267.177 251.209,281.691 249.503 C 287.847 248.779,290.240 244.927,286.719 241.406 C 285.045 239.733,283.384 239.620,276.563 240.718 M149.411 272.777 C 147.740 274.447,148.025 354.945,149.707 356.627 C 151.606 358.526,155.596 357.875,156.807 355.469 C 158.228 352.644,158.228 277.044,156.806 274.219 C 155.689 271.999,151.086 271.101,149.411 272.777 M184.887 277.210 C 183.077 279.210,183.202 283.329,185.105 284.348 C 188.438 286.131,211.487 285.360,212.846 283.420 C 214.483 281.083,214.377 279.221,212.500 277.344 C 210.217 275.060,186.934 274.948,184.887 277.210 M122.321 287.165 C 121.244 288.243,121.094 292.478,121.094 321.875 C 121.094 358.663,120.983 357.813,125.793 357.813 C 130.452 357.813,130.469 357.684,130.469 321.875 C 130.469 293.756,130.306 289.178,129.253 287.674 C 127.808 285.612,124.144 285.343,122.321 287.165 M67.699 301.429 C 65.789 303.540,65.728 354.679,67.634 356.585 C 69.456 358.407,73.121 358.138,74.565 356.076 C 76.674 353.065,76.360 303.704,74.219 301.563 C 72.269 299.613,69.396 299.554,67.699 301.429 M95.486 310.591 C 93.179 312.207,92.713 354.320,94.978 356.585 C 96.800 358.407,100.465 358.138,101.909 356.076 C 104.005 353.084,103.698 313.073,101.563 310.938 C 99.685 309.060,97.823 308.954,95.486 310.591 M184.821 311.384 C 183.164 313.042,183.270 316.652,185.022 318.238 C 187.375 320.367,210.327 320.142,212.500 317.969 C 214.377 316.092,214.483 314.230,212.846 311.893 C 211.243 309.604,187.041 309.164,184.821 311.384 M362.148 335.956 C 368.006 338.792,388.687 360.660,390.141 365.555 C 393.673 377.447,382.625 388.669,370.821 385.180 C 366.998 384.050,343.191 361.083,340.886 356.302 C 334.661 343.388,349.052 329.617,362.148 335.956 M184.531 345.469 C 184.016 345.984,183.594 347.546,183.594 348.940 C 183.594 353.798,184.200 353.906,211.328 353.906 C 238.457 353.906,239.063 353.798,239.063 348.940 C 239.063 347.546,238.641 345.984,238.125 345.469 C 236.783 344.126,185.874 344.126,184.531 345.469 M1.275 364.730 C -0.793 367.015,-0.166 371.697,2.471 373.657 C 7.526 377.415,14.134 370.806,10.375 365.752 C 8.340 363.016,3.335 362.453,1.275 364.730 " stroke="none" fill="#991723" fill-rule="evenodd"></path></g></svg>