<?xml version="1.0" standalone="no"?>
<!DOCTYPE svg PUBLIC "-//W3C//DTD SVG 20010904//EN"
 "http://www.w3.org/TR/2001/REC-SVG-20010904/DTD/svg10.dtd">
<svg version="1.0" xmlns="http://www.w3.org/2000/svg"
 width="4000.000000pt" height="4000.000000pt" viewBox="0 0 4000.000000 4000.000000"
 preserveAspectRatio="xMidYMid meet">
<metadata>
Created by potrace 1.16, written by Peter Selinger 2001-2019
</metadata>
<g transform="translate(0.000000,4000.000000) scale(0.100000,-0.100000)"
fill="#000000" stroke="none">
<path d="M8070 24544 c0 -11 184 -351 273 -503 403 -694 942 -1422 1441 -1951
55 -58 217 -224 361 -370 488 -495 680 -722 889 -1050 75 -118 119 -195 99
-170 -373 442 -652 717 -982 969 -231 176 -474 323 -714 433 -418 191 -763
276 -1159 285 -134 4 -208 2 -208 -5 0 -14 302 -306 461 -446 490 -432 960
-756 1603 -1105 264 -143 292 -161 498 -321 184 -144 224 -177 178 -148 -104
63 -314 168 -465 231 -225 94 -399 150 -585 187 -219 44 -327 53 -575 47 -183
-5 -240 -10 -341 -31 -140 -29 -269 -68 -269 -80 0 -23 449 -242 715 -348 289
-115 643 -223 930 -283 66 -14 525 -164 518 -170 -2 -1 -46 4 -98 12 -61 10
-180 15 -330 16 -274 2 -402 -16 -600 -82 -174 -58 -445 -201 -423 -222 11
-11 256 -56 401 -74 324 -39 647 -42 1027 -10 94 8 213 15 266 15 156 0 785
-57 862 -79 37 -10 70 -15 72 -10 3 4 1 27 -4 51 -5 24 -17 84 -26 133 -74
405 -273 1082 -463 1575 -258 669 -627 1352 -992 1835 -168 223 -304 379 -510
586 -374 375 -733 633 -1173 841 -250 118 -308 142 -498 202 -140 44 -179 53
-179 40z"/>
<path d="M15169 21460 c-53 -21 -359 -147 -679 -279 l-582 -241 -184 -34 -184
-35 -56 19 c-416 144 -756 -28 -948 -478 -20 -46 -72 -190 -117 -319 -129
-378 -191 -501 -317 -635 -36 -38 -63 -71 -60 -74 3 -2 46 13 95 35 332 146
466 244 828 606 132 132 283 276 336 320 142 118 370 269 572 379 349 190
1175 633 1345 721 67 35 90 56 60 54 -7 0 -56 -18 -109 -39z"/>
<path d="M14970 18634 c-208 -56 -362 -209 -414 -411 -20 -78 -21 -231 -1
-308 28 -108 72 -184 154 -265 130 -129 258 -175 461 -168 156 7 274 50 379
138 l25 21 -89 89 -89 89 -30 -23 c-79 -60 -115 -71 -226 -71 -95 0 -110 3
-156 27 -240 127 -238 511 5 630 33 17 69 24 128 26 98 5 163 -14 230 -65 l46
-35 83 83 c46 46 84 89 84 95 0 33 -165 126 -262 149 -81 19 -256 18 -328 -1z"/>
<path d="M22065 18631 c-193 -55 -350 -215 -400 -407 -19 -75 -19 -233 0 -309
42 -163 154 -301 304 -374 46 -22 108 -45 139 -52 85 -17 272 -6 349 21 177
62 321 218 368 396 20 76 20 242 0 318 -52 198 -213 357 -415 411 -77 21 -268
19 -345 -4z m285 -231 c86 -23 172 -106 204 -197 50 -144 6 -334 -96 -415
-124 -98 -329 -92 -438 13 -126 123 -140 360 -29 500 77 97 217 135 359 99z"/>
<path d="M25395 18631 c-193 -55 -350 -215 -400 -407 -19 -75 -19 -233 0 -309
42 -163 154 -301 304 -374 46 -22 108 -45 139 -52 85 -17 272 -6 349 21 177
62 321 218 368 396 20 76 20 242 0 318 -52 198 -213 357 -415 411 -77 21 -268
19 -345 -4z m285 -231 c86 -23 172 -106 204 -197 50 -144 6 -334 -96 -415
-124 -98 -329 -92 -438 13 -126 123 -140 360 -29 500 77 97 217 135 359 99z"/>
<path d="M15690 18070 l0 -570 135 0 135 0 0 230 c0 127 3 230 8 230 4 -1 81
-104 172 -230 l165 -230 159 0 c151 0 158 1 144 18 -74 86 -338 444 -333 452
3 5 13 10 22 10 26 0 116 50 151 83 58 55 85 120 90 217 3 70 0 95 -18 142
-40 108 -146 186 -280 208 -36 5 -174 10 -307 10 l-243 0 0 -570z m516 344
c92 -44 99 -181 11 -234 -27 -17 -51 -20 -144 -20 l-113 0 0 135 0 135 106 0
c77 0 115 -4 140 -16z"/>
<path d="M16720 18070 l0 -570 415 0 415 0 0 110 0 110 -280 0 -280 0 0 125 0
125 250 0 250 0 0 110 0 110 -250 0 -250 0 0 110 0 110 275 0 275 0 0 115 0
115 -410 0 -410 0 0 -570z"/>
<path d="M17700 18071 l0 -571 288 0 c225 0 301 3 347 15 205 52 364 212 411
411 22 93 15 245 -15 333 -46 133 -145 247 -266 306 -126 62 -160 67 -477 72
l-288 5 0 -571z m526 328 c78 -14 157 -60 201 -117 47 -63 66 -137 61 -241 -7
-139 -59 -225 -166 -278 -53 -26 -67 -28 -204 -31 l-148 -4 0 341 0 341 97 0
c53 0 125 -5 159 -11z"/>
<path d="M18910 18070 l0 -570 135 0 135 0 0 570 0 570 -135 0 -135 0 0 -570z"/>
<path d="M19741 18618 c-5 -13 -106 -267 -225 -566 -119 -299 -216 -546 -216
-548 0 -3 62 -3 137 -2 l136 3 36 97 36 98 217 0 216 0 32 -88 c17 -48 35 -93
39 -100 6 -9 44 -12 144 -10 l136 3 -222 567 -222 567 -118 1 c-113 0 -118 -1
-126 -22z m196 -526 c34 -96 63 -176 63 -178 0 -2 -63 -4 -139 -4 l-139 0 69
187 c38 103 69 190 70 193 1 6 1 7 76 -198z"/>
<path d="M20530 18070 l0 -570 135 0 135 0 0 235 0 235 215 0 215 0 0 -235 0
-235 135 0 135 0 0 570 0 570 -135 0 -135 0 0 -220 0 -220 -215 0 -215 0 0
220 0 220 -135 0 -135 0 0 -570z"/>
<path d="M22990 18070 l0 -570 135 0 135 0 0 230 c0 127 3 230 8 230 4 -1 81
-104 172 -230 l165 -230 159 0 c151 0 158 1 144 18 -74 86 -338 444 -333 452
3 5 13 10 22 10 26 0 116 50 151 83 58 55 85 120 90 217 3 70 0 95 -18 142
-40 108 -146 186 -280 208 -36 5 -174 10 -307 10 l-243 0 0 -570z m516 344
c92 -44 99 -181 11 -234 -27 -17 -51 -20 -144 -20 l-113 0 0 135 0 135 106 0
c77 0 115 -4 140 -16z"/>
<path d="M24010 18070 l0 -570 135 0 135 0 0 230 c0 127 3 230 8 230 4 -1 81
-104 172 -230 l165 -230 159 0 c151 0 158 1 144 18 -74 86 -338 444 -333 452
3 5 13 10 22 10 26 0 116 50 151 83 58 55 85 120 90 217 3 70 0 95 -18 142
-40 108 -146 186 -280 208 -36 5 -174 10 -307 10 l-243 0 0 -570z m516 344
c92 -44 99 -181 11 -234 -27 -17 -51 -20 -144 -20 l-113 0 0 135 0 135 106 0
c77 0 115 -4 140 -16z"/>
<path d="M26630 18071 l0 -571 288 0 c225 0 301 3 347 15 205 52 364 212 411
411 22 93 15 245 -15 333 -46 133 -145 247 -266 306 -126 62 -160 67 -477 72
l-288 5 0 -571z m526 328 c78 -14 157 -60 201 -117 47 -63 66 -137 61 -241 -7
-139 -59 -225 -166 -278 -53 -26 -67 -28 -204 -31 l-148 -4 0 341 0 341 97 0
c53 0 125 -5 159 -11z"/>
<path d="M27830 18070 l0 -570 415 0 415 0 0 110 0 110 -280 0 -280 0 0 125 0
125 250 0 250 0 0 110 0 110 -250 0 -250 0 0 110 0 110 275 0 275 0 0 115 0
115 -410 0 -410 0 0 -570z"/>
<path d="M29120 18070 l0 -570 135 0 135 0 0 230 c0 127 3 230 8 230 4 -1 81
-104 172 -230 l165 -230 159 0 c151 0 158 1 144 18 -74 86 -338 444 -333 452
3 5 13 10 22 10 26 0 116 50 151 83 58 55 85 120 90 217 3 70 0 95 -18 142
-40 108 -146 186 -280 208 -36 5 -174 10 -307 10 l-243 0 0 -570z m516 344
c92 -44 99 -181 11 -234 -27 -17 -51 -20 -144 -20 l-113 0 0 135 0 135 106 0
c77 0 115 -4 140 -16z"/>
<path d="M30650 18070 l0 -570 385 0 385 0 0 115 0 115 -250 0 -250 0 0 455 0
455 -135 0 -135 0 0 -570z"/>
<path d="M11330 18186 c-636 -256 -1124 -682 -1385 -1211 -115 -232 -199 -523
-225 -775 -16 -156 -13 -485 5 -619 8 -63 15 -118 15 -123 0 -35 41 25 205
297 82 136 299 573 352 710 28 72 85 230 127 352 73 212 81 229 201 433 68
117 127 215 130 218 3 3 -20 -47 -50 -111 -247 -519 -244 -1082 8 -1671 36
-85 51 -101 60 -64 3 13 28 112 55 220 87 338 123 595 142 1003 10 212 11 223
44 315 l33 94 6 -194 c4 -159 10 -214 30 -300 45 -192 126 -373 246 -551 82
-123 191 -254 200 -242 11 13 -5 343 -24 498 -20 168 -55 357 -90 480 -21 73
-31 156 -55 452 l-30 362 45 185 c25 101 52 201 60 220 16 38 19 67 8 65 -5 0
-55 -20 -113 -43z"/>
<path d="M30228 17763 c-59 -37 -86 -139 -54 -201 29 -55 62 -76 129 -80 57
-4 66 -1 95 23 43 36 62 75 62 125 0 56 -25 105 -65 130 -41 25 -128 27 -167
3z"/>
<path d="M31608 17763 c-59 -37 -86 -139 -54 -201 29 -55 62 -76 129 -80 57
-4 66 -1 95 23 43 36 62 75 62 125 0 56 -25 105 -65 130 -41 25 -128 27 -167
3z"/>
</g>
</svg>
